<svg width="18" height="19" viewBox="0 0 18 19" fill="none" xmlns="http://www.w3.org/2000/svg">
<path d="M17.28 0.0800171H0.72C0.32175 0.0800171 0 0.401767 0 0.800017V17.36C0 17.7583 0.32175 18.08 0.72 18.08H17.28C17.6783 18.08 18 17.7583 18 17.36V0.800017C18 0.401767 17.6783 0.0800171 17.28 0.0800171ZM15.201 5.33377H13.7633C12.636 5.33377 12.4178 5.86927 12.4178 6.65677V8.39152H15.1088L14.7578 11.1073H12.4178V18.08H9.612V11.1095H7.26525V8.39152H9.612V6.38902C9.612 4.06477 11.0318 2.79802 13.1063 2.79802C14.1008 2.79802 14.9535 2.87227 15.2033 2.90602V5.33377H15.201Z" fill="white"/>
</svg>
