<svg width="19" height="19" viewBox="0 0 19 19" fill="none" xmlns="http://www.w3.org/2000/svg">
<path d="M9.5 1.205C5.15117 1.205 1.625 4.73117 1.625 9.08C1.625 13.4288 5.15117 16.955 9.5 16.955C13.8488 16.955 17.375 13.4288 17.375 9.08C17.375 4.73117 13.8488 1.205 9.5 1.205ZM12.4355 12.3425C11.7219 12.9999 10.748 13.3866 9.58613 13.3866C7.90391 13.3866 6.44844 12.4216 5.74004 11.0154C5.44824 10.4335 5.28125 9.7761 5.28125 9.08C5.28125 8.38391 5.44824 7.72649 5.74004 7.14465C6.44844 5.73664 7.90391 4.7716 9.58613 4.7716C10.7463 4.7716 11.7201 5.19875 12.4672 5.89309L11.2332 7.12883C10.7867 6.70168 10.2189 6.48547 9.58789 6.48547C8.46641 6.48547 7.51719 7.24309 7.17793 8.26086C7.0918 8.51926 7.04258 8.79524 7.04258 9.08C7.04258 9.36477 7.0918 9.64074 7.17793 9.89914C7.51719 10.9169 8.46641 11.6745 9.58613 11.6745C10.1662 11.6745 10.6584 11.5216 11.0434 11.2632C11.5004 10.9573 11.8027 10.5021 11.9029 9.96242H9.58613V8.29602H13.6414C13.6924 8.57903 13.7188 8.87258 13.7188 9.17668C13.7188 10.4898 13.2494 11.5919 12.4355 12.3425V12.3425Z" fill="white"/>
</svg>
