<?xml version="1.0" encoding="UTF-8"?><svg id="Layer_2" xmlns="http://www.w3.org/2000/svg" viewBox="0 0 159.61 31.08"><defs><style>.cls-1{fill:#010101;}.cls-1,.cls-2{stroke-width:0px;}.cls-2{fill:#f79347;}</style></defs><g id="Layer_1-2"><path class="cls-2" d="M31.06,3.77c0,.25-.03.5-.08.74-.13.73-.46,1.37-.99,1.92L12.82,23.56c-.1.1-.24.16-.38.16H3.28c-.48,0-.72-.58-.38-.92l14.33-14.33c.34-.34.1-.92-.38-.92H.54c-.3,0-.54-.24-.54-.54V.54C0,.24.24,0,.54,0h26.76c.74,0,1.44.2,2.05.61.64.41,1.11.97,1.4,1.72.21.46.31.94.31,1.44Z"/><path class="cls-1" d="M59.7,13.85h-13.41v-4.28h13.41v4.28ZM61.61,23.42h-15.32c-.59,0-1.23-.1-1.93-.31-.7-.21-1.34-.54-1.94-1.01-.59-.48-1.08-1.09-1.49-1.85-.39-.76-.59-1.69-.59-2.79V2.14c0-.29.05-.57.16-.83.11-.26.26-.49.44-.69.2-.2.42-.35.69-.46.26-.11.54-.16.85-.16h19.12v4.25h-17.02v13.21c0,.56.15.98.44,1.27.29.29.72.44,1.29.44h15.29v4.25ZM81.98,7.07c.17.4.22.81.13,1.22-.08.41-.26.77-.56,1.08l-9.81,9.8h10.21v4.25h-15.32c-.44,0-.83-.12-1.19-.36-.35-.25-.61-.57-.78-.95-.16-.4-.21-.81-.13-1.22.09-.42.29-.79.6-1.11l9.77-9.77h-10.21v-4.25h15.35c.42,0,.81.11,1.16.34.36.23.62.55.78.96ZM115.75,0l-3.92,21.95c-.09.44-.28.81-.59,1.13-.3.32-.68.52-1.11.6-.45.08-.87.03-1.27-.15-.39-.17-.7-.45-.93-.82l-7.77-12.77-7.79,12.77c-.19.32-.44.56-.77.73-.32.17-.66.26-1.03.26-.51,0-.96-.16-1.36-.49-.39-.33-.63-.75-.72-1.27l-3.95-21.95h4.31l2.81,15.47,6.7-10.68c.19-.32.44-.56.75-.73.33-.17.68-.26,1.05-.26s.71.09,1.03.26c.32.17.58.42.78.73l6.66,10.68,2.81-15.47h4.31ZM136.52,17.57c0,.59-.1,1.22-.31,1.91-.21.67-.54,1.31-1.01,1.89-.46.58-1.06,1.06-1.81,1.45-.74.39-1.64.59-2.71.59h-7.66c-.59,0-1.22-.1-1.91-.31-.68-.21-1.31-.54-1.89-1-.58-.47-1.06-1.07-1.45-1.81-.39-.75-.59-1.66-.59-2.73,0-.59.1-1.22.31-1.91.21-.69.54-1.32,1-1.89.47-.59,1.07-1.08,1.81-1.47.75-.39,1.66-.59,2.73-.59h7.66v4.05h-7.66c-.58,0-1.02.18-1.34.54-.32.35-.47.78-.47,1.31,0,.56.18.99.54,1.31.37.3.81.46,1.31.46h7.63c.58,0,1.02-.17,1.34-.52.32-.35.47-.78.47-1.31v-5.93c0-.56-.17-1-.52-1.32-.34-.33-.77-.49-1.29-.49h-9.32v-4.03h9.32c.59,0,1.22.1,1.89.31.69.21,1.32.54,1.89,1.01.59.46,1.08,1.06,1.47,1.81.39.74.59,1.64.59,2.71v5.96ZM159.61,25.12c0,.73-.09,1.38-.28,1.96-.18.59-.43,1.1-.73,1.54-.3.45-.66.82-1.06,1.13-.4.32-.83.57-1.27.77-.43.2-.88.34-1.32.42-.45.1-.87.15-1.27.15h-7.66v-4.25h7.66c.57,0,.99-.15,1.27-.44.28-.29.42-.72.42-1.27V5.76h4.25v19.35ZM153.67,23.42h-7.66c-.61,0-1.26-.1-1.96-.31-.69-.21-1.33-.54-1.93-1.01-.6-.48-1.09-1.09-1.49-1.85-.39-.76-.59-1.69-.59-2.79V5.76h4.25v11.69c0,.56.15.98.44,1.27.29.29.73.44,1.31.44h7.63v4.25Z"/></g></svg>