<svg width="18" height="19" viewBox="0 0 18 19" fill="none" xmlns="http://www.w3.org/2000/svg">
<path opacity="0.5" d="M11.25 12.08C9.2325 12.08 6.9225 13.04 6.75 13.58H15.75C15.6 13.0475 13.275 12.08 11.25 12.08Z" fill="white"/>
<path opacity="0.5" d="M11.25 7.58C12.0784 7.58 12.75 6.90843 12.75 6.08C12.75 5.25157 12.0784 4.58 11.25 4.58C10.4216 4.58 9.75 5.25157 9.75 6.08C9.75 6.90843 10.4216 7.58 11.25 7.58Z" fill="white"/>
<path fill-rule="evenodd" clip-rule="evenodd" d="M14.25 6.08C14.25 7.7375 12.9075 9.08 11.25 9.08C9.5925 9.08 8.25 7.7375 8.25 6.08C8.25 4.4225 9.5925 3.08 11.25 3.08C12.9075 3.08 14.25 4.4225 14.25 6.08ZM12.75 6.08C12.75 5.255 12.075 4.58 11.25 4.58C10.425 4.58 9.75 5.255 9.75 6.08C9.75 6.905 10.425 7.58 11.25 7.58C12.075 7.58 12.75 6.905 12.75 6.08Z" fill="white"/>
<path fill-rule="evenodd" clip-rule="evenodd" d="M5.25 13.58C5.25 11.585 9.2475 10.58 11.25 10.58C13.2525 10.58 17.25 11.585 17.25 13.58V15.08H5.25V13.58ZM11.25 12.08C9.2325 12.08 6.915 13.04 6.75 13.58H15.75C15.6 13.0475 13.275 12.08 11.25 12.08Z" fill="white"/>
<path d="M4.5 11.33V9.08H6.75V7.58H4.5V5.33H3V7.58H0.75V9.08H3V11.33H4.5Z" fill="white"/>
</svg>
